<svg width="161" height="19" viewBox="0 0 161 19" fill="none" xmlns="http://www.w3.org/2000/svg">
<path d="M4.82498 15.44C3.99831 15.44 3.29164 15.3133 2.70498 15.06C2.13164 14.82 1.69164 14.48 1.38498 14.04C1.07831 13.6 0.924977 13.0867 0.924977 12.5C0.924977 12.0067 1.01831 11.58 1.20498 11.22C1.40498 10.86 1.67164 10.58 2.00498 10.38C2.33831 10.1667 2.71164 10.06 3.12498 10.06C3.41831 10.06 3.67164 10.1133 3.88498 10.22C4.11164 10.3267 4.27831 10.4733 4.38498 10.66C4.50498 10.8333 4.56498 11.0467 4.56498 11.3C4.56498 11.3667 4.55831 11.44 4.54498 11.52C4.53164 11.6 4.51831 11.6733 4.50498 11.74C4.45164 11.7133 4.38498 11.7 4.30498 11.7C4.23831 11.6867 4.17164 11.68 4.10498 11.68C3.83831 11.68 3.61164 11.7733 3.42498 11.96C3.23831 12.1333 3.14498 12.4 3.14498 12.76C3.14498 13.2267 3.33164 13.58 3.70498 13.82C4.09164 14.0467 4.56498 14.16 5.12498 14.16C5.55164 14.16 5.95164 14.0733 6.32498 13.9C6.69831 13.7267 6.99831 13.4733 7.22498 13.14C7.46498 12.8067 7.58498 12.3933 7.58498 11.9C7.58498 11.4867 7.47831 11.1133 7.26498 10.78C7.06498 10.4467 6.80498 10.1333 6.48498 9.84C6.17831 9.54667 5.84498 9.26 5.48498 8.98C5.08498 8.66 4.69831 8.33333 4.32498 8C3.95164 7.65333 3.63831 7.26 3.38498 6.82C3.14498 6.38 3.02498 5.86667 3.02498 5.28C3.02498 4.66667 3.15831 4.12 3.42498 3.64C3.69164 3.14667 4.04498 2.74 4.48498 2.42C4.93831 2.08667 5.45164 1.83333 6.02498 1.66C6.61164 1.48667 7.21831 1.4 7.84498 1.4C8.51164 1.4 9.09164 1.49333 9.58498 1.68C10.0783 1.85333 10.4583 2.10667 10.725 2.44C11.005 2.77333 11.145 3.16667 11.145 3.62C11.145 4.03333 11.065 4.4 10.905 4.72C10.745 5.04 10.525 5.29333 10.245 5.48C9.97831 5.65333 9.67831 5.74 9.34498 5.74C9.09164 5.74 8.87164 5.7 8.68498 5.62C8.49831 5.54 8.36498 5.43333 8.28498 5.3C8.44498 5.20667 8.59164 5.04 8.72498 4.8C8.85831 4.56 8.92498 4.3 8.92498 4.02C8.92498 3.60667 8.79831 3.28 8.54498 3.04C8.29164 2.78667 7.87831 2.66 7.30498 2.66C6.71831 2.66 6.22498 2.83333 5.82498 3.18C5.43831 3.52667 5.24498 3.99333 5.24498 4.58C5.24498 4.99333 5.35164 5.37333 5.56498 5.72C5.77831 6.05333 6.05164 6.36667 6.38498 6.66C6.73164 6.94 7.08498 7.22 7.44498 7.5C7.84498 7.79333 8.22498 8.11333 8.58498 8.46C8.95831 8.80667 9.25831 9.20667 9.48498 9.66C9.72498 10.1 9.84498 10.62 9.84498 11.22C9.84498 11.8867 9.69831 12.4867 9.40498 13.02C9.12498 13.54 8.73831 13.98 8.24498 14.34C7.76498 14.7 7.22498 14.9733 6.62498 15.16C6.02498 15.3467 5.42498 15.44 4.82498 15.44ZM13.2088 15.42C12.8355 15.42 12.5088 15.3 12.2288 15.06C11.9488 14.82 11.8088 14.4733 11.8088 14.02C11.8088 13.7533 11.8488 13.38 11.9288 12.9C12.0088 12.4067 12.1022 11.8867 12.2088 11.34C12.3155 10.7933 12.4222 10.2733 12.5288 9.78C12.6488 9.27333 12.7355 8.86667 12.7888 8.56L13.3688 5.7H11.9488L12.0288 5.1C12.6688 4.86 13.3022 4.54 13.9288 4.14C14.5555 3.74 15.1088 3.3 15.5888 2.82H16.2088L15.8088 4.8H17.3688L17.1888 5.7H15.6088L14.2288 12.5C14.1888 12.7133 14.1555 12.9067 14.1288 13.08C14.1022 13.24 14.0822 13.3933 14.0688 13.54C14.0555 13.9 14.1222 14.1533 14.2688 14.3C14.4155 14.4333 14.6822 14.46 15.0688 14.38C14.9488 14.6333 14.7955 14.8333 14.6088 14.98C14.4355 15.1267 14.2288 15.2333 13.9888 15.3C13.7488 15.38 13.4888 15.42 13.2088 15.42ZM19.8683 15.4C19.215 15.4 18.6883 15.2733 18.2883 15.02C17.9016 14.78 17.6216 14.44 17.4483 14C17.275 13.56 17.1883 13.0667 17.1883 12.52C17.1883 12.1333 17.235 11.6267 17.3283 11C17.435 10.3733 17.5883 9.56 17.7883 8.56C18.0016 7.56 18.275 6.30667 18.6083 4.8L20.7883 4.56C20.5083 5.92 20.275 7.04667 20.0883 7.94C19.9016 8.82 19.755 9.54 19.6483 10.1C19.555 10.66 19.4883 11.12 19.4483 11.48C19.4083 11.8267 19.3883 12.14 19.3883 12.42C19.3883 12.7133 19.4216 13 19.4883 13.28C19.5683 13.5467 19.7083 13.7667 19.9083 13.94C20.1083 14.1133 20.375 14.2 20.7083 14.2C21.1883 14.2 21.5883 14.04 21.9083 13.72C22.2283 13.3867 22.4816 12.9733 22.6683 12.48C22.8683 11.9867 23.0083 11.4933 23.0883 11L24.2883 4.8L26.5483 4.56L24.9283 12.92C24.915 13.04 24.895 13.18 24.8683 13.34C24.8416 13.5 24.8283 13.64 24.8283 13.76C24.8283 13.96 24.875 14.12 24.9683 14.24C25.075 14.36 25.2283 14.4267 25.4283 14.44C25.3883 14.6667 25.2883 14.8533 25.1283 15C24.9816 15.1333 24.8083 15.2333 24.6083 15.3C24.4083 15.3667 24.195 15.4 23.9683 15.4C23.595 15.4 23.2883 15.3 23.0483 15.1C22.8083 14.9133 22.655 14.6333 22.5883 14.26C22.3216 14.66 21.9283 14.9467 21.4083 15.12C20.8883 15.3067 20.375 15.4 19.8683 15.4ZM34.7572 15.4C34.3438 15.4 34.0105 15.28 33.7572 15.04C33.5172 14.8133 33.3972 14.4333 33.3972 13.9C33.3972 13.6067 33.4372 13.2267 33.5172 12.76C33.6105 12.2933 33.7172 11.8 33.8372 11.28C33.9572 10.7467 34.0772 10.22 34.1972 9.7C34.3172 9.18 34.4172 8.71333 34.4972 8.3C34.5905 7.87333 34.6372 7.54 34.6372 7.3C34.6372 6.86 34.5238 6.52667 34.2972 6.3C34.0705 6.06 33.7705 5.94 33.3972 5.94C32.8772 5.94 32.4372 6.12 32.0772 6.48C31.7172 6.84 31.4238 7.29333 31.1972 7.84C30.9705 8.37333 30.8038 8.90667 30.6972 9.44L29.6172 15L27.3372 15.24L29.3772 4.8L31.2772 4.56L31.0372 6.36C31.3972 5.72 31.8772 5.23333 32.4772 4.9C33.0772 4.56667 33.7105 4.4 34.3772 4.4C35.1905 4.4 35.8105 4.61333 36.2372 5.04C36.6638 5.45333 36.8772 6.04 36.8772 6.8C36.8772 7.17333 36.8372 7.60667 36.7572 8.1C36.6772 8.59333 36.5705 9.12 36.4372 9.68C36.3172 10.2267 36.1972 10.76 36.0772 11.28C35.9572 11.8 35.8505 12.2733 35.7572 12.7C35.6772 13.1267 35.6372 13.46 35.6372 13.7C35.6372 13.9 35.6772 14.0667 35.7572 14.2C35.8372 14.3333 35.9972 14.4133 36.2372 14.44C36.1572 14.7733 35.9772 15.0133 35.6972 15.16C35.4172 15.32 35.1038 15.4 34.7572 15.4ZM45.3809 15.4C44.9675 15.4 44.6342 15.28 44.3809 15.04C44.1409 14.8133 44.0209 14.4333 44.0209 13.9C44.0209 13.6067 44.0609 13.2267 44.1409 12.76C44.2342 12.2933 44.3409 11.8 44.4609 11.28C44.5809 10.7467 44.7009 10.22 44.8209 9.7C44.9409 9.18 45.0409 8.71333 45.1209 8.3C45.2142 7.87333 45.2609 7.54 45.2609 7.3C45.2609 6.86 45.1475 6.52667 44.9209 6.3C44.6942 6.06 44.3942 5.94 44.0209 5.94C43.5009 5.94 43.0609 6.12 42.7009 6.48C42.3409 6.84 42.0475 7.29333 41.8209 7.84C41.5942 8.37333 41.4275 8.90667 41.3209 9.44L40.2409 15L37.9609 15.24L40.0009 4.8L41.9009 4.56L41.6609 6.36C42.0209 5.72 42.5009 5.23333 43.1009 4.9C43.7009 4.56667 44.3342 4.4 45.0009 4.4C45.8142 4.4 46.4342 4.61333 46.8609 5.04C47.2875 5.45333 47.5009 6.04 47.5009 6.8C47.5009 7.17333 47.4609 7.60667 47.3809 8.1C47.3009 8.59333 47.1942 9.12 47.0609 9.68C46.9409 10.2267 46.8209 10.76 46.7009 11.28C46.5809 11.8 46.4742 12.2733 46.3809 12.7C46.3009 13.1267 46.2609 13.46 46.2609 13.7C46.2609 13.9 46.3009 14.0667 46.3809 14.2C46.4609 14.3333 46.6209 14.4133 46.8609 14.44C46.7809 14.7733 46.6009 15.0133 46.3209 15.16C46.0409 15.32 45.7275 15.4 45.3809 15.4ZM49.9646 15.4C49.5379 15.4 49.2046 15.28 48.9646 15.04C48.7246 14.8 48.6046 14.4667 48.6046 14.04C48.6046 13.88 48.6179 13.6867 48.6446 13.46C48.6712 13.2333 48.7046 13 48.7446 12.76C48.7846 12.5067 48.8246 12.2733 48.8646 12.06C48.9179 11.8333 48.9579 11.64 48.9846 11.48L50.3446 4.8L52.6246 4.56L50.9446 12.92C50.9312 13.0267 50.9112 13.1667 50.8846 13.34C50.8579 13.5 50.8446 13.64 50.8446 13.76C50.8446 13.96 50.8912 14.12 50.9846 14.24C51.0912 14.36 51.2446 14.4267 51.4446 14.44C51.3646 14.7733 51.1779 15.0133 50.8846 15.16C50.6046 15.32 50.2979 15.4 49.9646 15.4ZM51.9846 3.04C51.5579 3.04 51.2046 2.94 50.9246 2.74C50.6446 2.52667 50.5046 2.21333 50.5046 1.8C50.5046 1.36 50.6512 1.04 50.9446 0.84C51.2379 0.626666 51.5979 0.519999 52.0246 0.519999C52.4512 0.519999 52.8046 0.626666 53.0846 0.84C53.3646 1.04 53.5046 1.34667 53.5046 1.76C53.5046 2.2 53.3579 2.52667 53.0646 2.74C52.7712 2.94 52.4112 3.04 51.9846 3.04ZM60.7689 15.4C60.3555 15.4 60.0222 15.28 59.7689 15.04C59.5289 14.8133 59.4089 14.4333 59.4089 13.9C59.4089 13.6067 59.4489 13.2267 59.5289 12.76C59.6222 12.2933 59.7289 11.8 59.8489 11.28C59.9689 10.7467 60.0889 10.22 60.2089 9.7C60.3289 9.18 60.4289 8.71333 60.5089 8.3C60.6022 7.87333 60.6489 7.54 60.6489 7.3C60.6489 6.86 60.5355 6.52667 60.3089 6.3C60.0822 6.06 59.7822 5.94 59.4089 5.94C58.8889 5.94 58.4489 6.12 58.0889 6.48C57.7289 6.84 57.4355 7.29333 57.2089 7.84C56.9822 8.37333 56.8155 8.90667 56.7089 9.44L55.6289 15L53.3489 15.24L55.3889 4.8L57.2889 4.56L57.0489 6.36C57.4089 5.72 57.8889 5.23333 58.4889 4.9C59.0889 4.56667 59.7222 4.4 60.3889 4.4C61.2022 4.4 61.8222 4.61333 62.2489 5.04C62.6756 5.45333 62.8889 6.04 62.8889 6.8C62.8889 7.17333 62.8489 7.60667 62.7689 8.1C62.6889 8.59333 62.5822 9.12 62.4489 9.68C62.3289 10.2267 62.2089 10.76 62.0889 11.28C61.9689 11.8 61.8622 12.2733 61.7689 12.7C61.6889 13.1267 61.6489 13.46 61.6489 13.7C61.6489 13.9 61.6889 14.0667 61.7689 14.2C61.8489 14.3333 62.0089 14.4133 62.2489 14.44C62.1689 14.7733 61.9889 15.0133 61.7089 15.16C61.4289 15.32 61.1155 15.4 60.7689 15.4ZM66.6926 18.96C66.1459 18.96 65.6326 18.92 65.1526 18.84C64.6726 18.7733 64.2526 18.6533 63.8926 18.48C63.5326 18.3067 63.2526 18.0867 63.0526 17.82C62.8526 17.5667 62.7526 17.2533 62.7526 16.88C62.7659 16.44 62.8992 16.0867 63.1526 15.82C63.4059 15.5533 63.7659 15.42 64.2326 15.42C64.4992 15.42 64.7459 15.4667 64.9726 15.56C65.1992 15.6533 65.3992 15.8 65.5726 16C65.4659 16.08 65.3792 16.18 65.3126 16.3C65.2459 16.4333 65.2126 16.5867 65.2126 16.76C65.2126 17.12 65.3792 17.38 65.7126 17.54C66.0592 17.7 66.5726 17.78 67.2526 17.78C67.7059 17.78 68.1592 17.7067 68.6126 17.56C69.0792 17.4267 69.4592 17.2067 69.7526 16.9C70.0592 16.5933 70.2126 16.1933 70.2126 15.7C70.2259 15.26 70.0126 14.9933 69.5726 14.9C69.1459 14.7933 68.4392 14.74 67.4526 14.74C66.8659 14.74 66.3526 14.6933 65.9126 14.6C65.4859 14.4933 65.1592 14.3333 64.9326 14.12C64.7059 13.8933 64.5926 13.5933 64.5926 13.22C64.6059 12.8333 64.7459 12.4533 65.0126 12.08C65.2792 11.6933 65.6192 11.3733 66.0326 11.12C65.5259 10.8933 65.1326 10.5733 64.8526 10.16C64.5726 9.74667 64.4326 9.23333 64.4326 8.62C64.4326 7.68667 64.6526 6.91333 65.0926 6.3C65.5326 5.67333 66.1192 5.2 66.8526 4.88C67.5992 4.56 68.4059 4.4 69.2726 4.4C69.6726 4.4 70.0059 4.42667 70.2726 4.48C70.5392 4.53333 70.7792 4.58667 70.9926 4.64C71.2059 4.68 71.4259 4.7 71.6526 4.7C72.2392 4.7 72.6659 4.56667 72.9326 4.3C73.1992 4.02 73.3326 3.68667 73.3326 3.3C73.3326 2.99333 73.2326 2.68 73.0326 2.36C73.2059 2.22667 73.3926 2.12 73.5926 2.04C73.7926 1.94667 73.9992 1.9 74.2126 1.9C74.5192 1.9 74.7592 2.00667 74.9326 2.22C75.1059 2.42 75.1926 2.68 75.1926 3C75.1926 3.41333 75.0726 3.81333 74.8326 4.2C74.5926 4.57333 74.2592 4.89333 73.8326 5.16C73.4059 5.41333 72.9192 5.58 72.3726 5.66C72.5059 5.87333 72.6059 6.11333 72.6726 6.38C72.7526 6.64667 72.7926 6.94 72.7926 7.26C72.7926 8.14 72.5726 8.89333 72.1326 9.52C71.7059 10.1467 71.1259 10.6267 70.3926 10.96C69.6592 11.28 68.8392 11.44 67.9326 11.44C67.7992 11.44 67.6659 11.44 67.5326 11.44C67.4126 11.4267 67.2859 11.4133 67.1526 11.4C67.0192 11.4933 66.9059 11.6067 66.8126 11.74C66.7192 11.86 66.6726 12.02 66.6726 12.22C66.6726 12.5 66.8259 12.6733 67.1326 12.74C67.4392 12.7933 67.8992 12.82 68.5126 12.82H69.6326C70.6459 12.82 71.3726 13.0133 71.8126 13.4C72.2659 13.7733 72.4926 14.2867 72.4926 14.94C72.4926 15.6067 72.3126 16.1867 71.9526 16.68C71.6059 17.1867 71.1459 17.6067 70.5726 17.94C70.0126 18.2733 69.3859 18.5267 68.6926 18.7C68.0126 18.8733 67.3459 18.96 66.6926 18.96ZM68.2726 10.44C68.8326 10.44 69.2792 10.2733 69.6126 9.94C69.9592 9.60667 70.2126 9.2 70.3726 8.72C70.5326 8.22667 70.6126 7.74667 70.6126 7.28C70.6126 6.74667 70.4792 6.30667 70.2126 5.96C69.9459 5.61333 69.5259 5.44 68.9526 5.44C68.5259 5.44 68.1592 5.53333 67.8526 5.72C67.5592 5.89333 67.3192 6.14 67.1326 6.46C66.9459 6.76667 66.8059 7.12 66.7126 7.52C66.6326 7.92 66.5926 8.32667 66.5926 8.74C66.5926 9.27333 66.7392 9.69333 67.0326 10C67.3259 10.2933 67.7392 10.44 68.2726 10.44ZM85.4201 15.44C84.7801 15.44 84.1935 15.3533 83.6601 15.18C83.1268 15.02 82.6668 14.7867 82.2801 14.48C81.9068 14.1733 81.6135 13.8067 81.4001 13.38C81.2001 12.94 81.1001 12.4533 81.1001 11.92C81.1001 11.3733 81.2068 10.86 81.4201 10.38C81.6468 9.9 81.9801 9.46 82.4201 9.06C82.8601 8.64667 83.4068 8.29333 84.0601 8C83.6468 7.76 83.3335 7.42667 83.1201 7C82.9201 6.57333 82.8201 6.08 82.8201 5.52C82.8335 5.06667 82.9601 4.62667 83.2001 4.2C83.4401 3.77333 83.7601 3.38667 84.1601 3.04C84.5601 2.69333 84.9935 2.45333 85.4601 2.32L86.7201 2.68C86.0668 3.13333 85.6201 3.62 85.3801 4.14C85.1401 4.64667 85.0135 5.12667 85.0001 5.58C84.9868 5.94 85.0268 6.27333 85.1201 6.58C85.2135 6.88667 85.3601 7.17333 85.5601 7.44C85.6668 7.44 85.8201 7.44 86.0201 7.44C86.2335 7.44 86.4535 7.44667 86.6801 7.46C86.9201 7.46 87.1201 7.46 87.2801 7.46C87.4668 7.46 87.7268 7.46 88.0601 7.46C88.4068 7.44667 88.7201 7.42 89.0001 7.38C89.0268 7.44667 89.0468 7.51333 89.0601 7.58C89.0735 7.63333 89.0801 7.7 89.0801 7.78C89.0801 8.14 88.9401 8.43333 88.6601 8.66C88.3935 8.87333 88.0135 8.98 87.5201 8.98C87.2001 8.98 86.8868 8.96 86.5801 8.92C86.2735 8.86667 85.9068 8.78667 85.4801 8.68C84.8535 9.06667 84.3801 9.49333 84.0601 9.96C83.7535 10.4267 83.6001 10.9333 83.6001 11.48C83.6001 12.2133 83.8401 12.7667 84.3201 13.14C84.8001 13.5 85.3868 13.68 86.0801 13.68C86.6535 13.68 87.2135 13.56 87.7601 13.32C88.3068 13.08 88.7801 12.78 89.1801 12.42C89.3001 12.4867 89.3868 12.5867 89.4401 12.72C89.4935 12.84 89.5201 12.9733 89.5201 13.12C89.5201 13.4267 89.4068 13.72 89.1801 14C88.9668 14.28 88.6668 14.5267 88.2801 14.74C87.9068 14.9533 87.4735 15.12 86.9801 15.24C86.4868 15.3733 85.9668 15.44 85.4201 15.44ZM79.5201 7.2C79.1068 7.2 78.7535 7.10667 78.4601 6.92C78.1668 6.72 77.9401 6.44667 77.7801 6.1C77.6335 5.74 77.5601 5.32667 77.5601 4.86C77.5601 4.39333 77.6468 3.92667 77.8201 3.46C77.9935 2.98 78.2668 2.55333 78.6401 2.18C79.0135 1.80667 79.4868 1.50667 80.0601 1.28C80.6335 1.05333 81.3135 0.94 82.1001 0.94C82.8468 0.94 83.5735 0.993333 84.2801 1.1C84.9868 1.20667 85.6801 1.32 86.3601 1.44C87.0401 1.54667 87.7001 1.6 88.3401 1.6C88.8601 1.6 89.3268 1.56 89.7401 1.48C90.1668 1.4 90.5668 1.18667 90.9401 0.84C91.0468 0.959999 91.1335 1.11333 91.2001 1.3C91.2801 1.47333 91.3135 1.64667 91.3001 1.82C91.3001 2.08667 91.2268 2.35333 91.0801 2.62C90.9468 2.87333 90.7201 3.08667 90.4001 3.26C90.0935 3.42 89.6935 3.5 89.2001 3.5C88.8401 3.5 88.4401 3.46 88.0001 3.38C87.5735 3.3 87.1135 3.18667 86.6201 3.04C86.1268 2.88 85.5935 2.7 85.0201 2.5L84.9801 2.42C84.5801 2.27333 84.1935 2.15333 83.8201 2.06C83.4468 1.96667 83.0735 1.92 82.7001 1.92C81.7935 1.92 81.0935 2.17333 80.6001 2.68C80.1068 3.18667 79.8601 3.89333 79.8601 4.8C79.8601 5.17333 79.9068 5.54 80.0001 5.9C80.1068 6.26 80.2601 6.60667 80.4601 6.94C80.3401 7.03333 80.2001 7.1 80.0401 7.14C79.8935 7.18 79.7201 7.2 79.5201 7.2ZM92.7627 15.24C92.6827 15.24 92.6027 15.24 92.5227 15.24C92.4561 15.24 92.3827 15.2333 92.3027 15.22C92.2761 14.1267 92.2427 13.0667 92.2027 12.04C92.1627 11.0133 92.1094 10.0533 92.0427 9.16C91.9761 8.25333 91.8894 7.46667 91.7827 6.8C91.7161 6.26667 91.6294 5.86 91.5227 5.58C91.4161 5.3 91.2294 5.08667 90.9627 4.94C91.1094 4.76667 91.2961 4.63333 91.5227 4.54C91.7627 4.44667 92.0361 4.4 92.3427 4.4C93.0094 4.4 93.4627 4.6 93.7027 5C93.9561 5.38667 94.1161 5.98667 94.1827 6.8C94.2094 7.01333 94.2294 7.3 94.2427 7.66C94.2561 8.00667 94.2694 8.46667 94.2827 9.04C94.2961 9.6 94.3027 10.3333 94.3027 11.24C94.3027 11.56 94.3027 11.9133 94.3027 12.3C94.3027 12.6867 94.2961 13.1067 94.2827 13.56C94.6561 13.0667 95.0227 12.52 95.3827 11.92C95.7427 11.3067 96.0694 10.6667 96.3627 10C96.6561 9.33333 96.8894 8.66667 97.0627 8C97.2361 7.33333 97.3227 6.7 97.3227 6.1C97.3227 5.92667 97.3094 5.74 97.2827 5.54C97.2694 5.34 97.2361 5.14 97.1827 4.94C97.3561 4.78 97.5761 4.65333 97.8427 4.56C98.1227 4.45333 98.4094 4.4 98.7027 4.4C98.9961 4.4 99.2227 4.45333 99.3827 4.56C99.5427 4.65333 99.6494 4.8 99.7027 5C99.7694 5.18667 99.8027 5.42667 99.8027 5.72C99.8027 6.29333 99.6894 6.93333 99.4627 7.64C99.2494 8.34667 98.9627 9.04667 98.6027 9.74C98.2427 10.4333 97.8561 11.0733 97.4427 11.66C96.5761 12.86 95.7827 13.76 95.0627 14.36C94.3427 14.9467 93.5761 15.24 92.7627 15.24ZM103.527 15.4C102.767 15.4 102.107 15.26 101.547 14.98C101.001 14.6867 100.581 14.2467 100.287 13.66C99.9939 13.0733 99.8472 12.3333 99.8472 11.44C99.8472 10.6 99.9606 9.76667 100.187 8.94C100.427 8.1 100.781 7.34 101.247 6.66C101.714 5.98 102.307 5.43333 103.027 5.02C103.761 4.60667 104.621 4.4 105.607 4.4C106.127 4.4 106.594 4.47333 107.007 4.62C107.421 4.76667 107.747 5.00667 107.987 5.34C108.227 5.67333 108.347 6.12667 108.347 6.7C108.347 7.47333 108.114 8.12667 107.647 8.66C107.194 9.18 106.587 9.58 105.827 9.86C105.067 10.1267 104.227 10.26 103.307 10.26C103.134 10.26 102.941 10.26 102.727 10.26C102.527 10.2467 102.361 10.2333 102.227 10.22C102.214 10.4333 102.201 10.6467 102.187 10.86C102.174 11.06 102.167 11.2467 102.167 11.42C102.167 12.14 102.301 12.7067 102.567 13.12C102.834 13.52 103.321 13.72 104.027 13.72C104.601 13.72 105.114 13.5867 105.567 13.32C106.021 13.04 106.374 12.6467 106.627 12.14C106.814 12.1933 106.941 12.3 107.007 12.46C107.074 12.62 107.107 12.7867 107.107 12.96C107.107 13.36 106.967 13.7467 106.687 14.12C106.407 14.4933 106.001 14.8 105.467 15.04C104.934 15.28 104.287 15.4 103.527 15.4ZM102.367 9.24C102.821 9.24 103.267 9.19333 103.707 9.1C104.161 9.00667 104.574 8.86 104.947 8.66C105.321 8.44667 105.614 8.18 105.827 7.86C106.054 7.52667 106.167 7.14 106.167 6.7C106.167 6.31333 106.074 6.02667 105.887 5.84C105.714 5.64 105.461 5.54 105.127 5.54C104.754 5.54 104.407 5.66 104.087 5.9C103.781 6.12667 103.514 6.42667 103.287 6.8C103.061 7.17333 102.867 7.57333 102.707 8C102.561 8.42667 102.447 8.84 102.367 9.24ZM108.615 15.24L110.615 4.8L112.515 4.56L112.275 6.36C112.528 5.78667 112.908 5.32 113.415 4.96C113.921 4.58667 114.488 4.4 115.115 4.4C115.768 4.4 116.241 4.59333 116.535 4.98C116.841 5.36667 116.995 5.84 116.995 6.4C116.995 7.06667 116.815 7.64 116.455 8.12C116.095 8.6 115.621 8.84 115.035 8.84C114.875 8.84 114.708 8.81333 114.535 8.76C114.375 8.70667 114.248 8.61333 114.155 8.48C114.328 8.25333 114.468 7.98 114.575 7.66C114.681 7.32667 114.735 7.02667 114.735 6.76C114.735 6.50667 114.675 6.30667 114.555 6.16C114.448 6.01333 114.268 5.94 114.015 5.94C113.695 5.94 113.415 6.06 113.175 6.3C112.935 6.52667 112.735 6.82 112.575 7.18C112.415 7.54 112.281 7.92667 112.175 8.34C112.081 8.74 112.001 9.10667 111.935 9.44L110.955 15L108.615 15.24ZM118.632 19C118.219 19 117.892 18.8667 117.652 18.6C117.425 18.3333 117.312 17.9733 117.312 17.52C117.312 17.16 117.412 16.8 117.612 16.44C117.812 16.0933 118.059 15.76 118.352 15.44C118.659 15.1333 118.945 14.86 119.212 14.62H118.312C118.285 13.5267 118.259 12.5133 118.232 11.58C118.205 10.6467 118.172 9.78667 118.132 9C118.105 8.2 118.045 7.46667 117.952 6.8C117.885 6.26667 117.792 5.86 117.672 5.58C117.565 5.3 117.385 5.08667 117.132 4.94C117.279 4.76667 117.465 4.63333 117.692 4.54C117.919 4.44667 118.192 4.4 118.512 4.4C118.965 4.4 119.312 4.48667 119.552 4.66C119.805 4.83333 119.985 5.1 120.092 5.46C120.199 5.82 120.265 6.26667 120.292 6.8C120.305 7.01333 120.312 7.31333 120.312 7.7C120.325 8.07333 120.332 8.54667 120.332 9.12C120.345 9.68 120.345 10.3867 120.332 11.24L120.312 13.16C120.859 12.4267 121.352 11.6733 121.792 10.9C122.245 10.1133 122.605 9.31333 122.872 8.5C123.139 7.68667 123.272 6.88667 123.272 6.1C123.272 5.92667 123.265 5.74 123.252 5.54C123.239 5.34 123.199 5.14 123.132 4.94C123.305 4.78 123.512 4.65333 123.752 4.56C124.005 4.45333 124.272 4.4 124.552 4.4C124.819 4.4 125.039 4.46 125.212 4.58C125.385 4.68667 125.519 4.85333 125.612 5.08C125.705 5.30667 125.752 5.57333 125.752 5.88C125.752 6.33333 125.679 6.81333 125.532 7.32C125.399 7.82667 125.199 8.36667 124.932 8.94C124.679 9.51333 124.352 10.1 123.952 10.7C123.565 11.3 123.112 11.9067 122.592 12.52C122.085 13.12 121.512 13.7133 120.872 14.3C120.485 14.66 120.179 15 119.952 15.32C119.739 15.6533 119.632 16.0933 119.632 16.64C119.632 16.92 119.685 17.22 119.792 17.54C119.912 17.8733 120.052 18.16 120.212 18.4C120.025 18.5867 119.792 18.7333 119.512 18.84C119.232 18.9467 118.939 19 118.632 19ZM137.229 15.44C136.589 15.44 136.002 15.3533 135.469 15.18C134.935 15.02 134.475 14.7867 134.089 14.48C133.715 14.1733 133.422 13.8067 133.209 13.38C133.009 12.94 132.909 12.4533 132.909 11.92C132.909 11.3733 133.015 10.86 133.229 10.38C133.455 9.9 133.789 9.46 134.229 9.06C134.669 8.64667 135.215 8.29333 135.869 8C135.455 7.76 135.142 7.42667 134.929 7C134.729 6.57333 134.629 6.08 134.629 5.52C134.642 5.06667 134.769 4.62667 135.009 4.2C135.249 3.77333 135.569 3.38667 135.969 3.04C136.369 2.69333 136.802 2.45333 137.269 2.32L138.529 2.68C137.875 3.13333 137.429 3.62 137.189 4.14C136.949 4.64667 136.822 5.12667 136.809 5.58C136.795 5.94 136.835 6.27333 136.929 6.58C137.022 6.88667 137.169 7.17333 137.369 7.44C137.475 7.44 137.629 7.44 137.829 7.44C138.042 7.44 138.262 7.44667 138.489 7.46C138.729 7.46 138.929 7.46 139.089 7.46C139.275 7.46 139.535 7.46 139.869 7.46C140.215 7.44667 140.529 7.42 140.809 7.38C140.835 7.44667 140.855 7.51333 140.869 7.58C140.882 7.63333 140.889 7.7 140.889 7.78C140.889 8.14 140.749 8.43333 140.469 8.66C140.202 8.87333 139.822 8.98 139.329 8.98C139.009 8.98 138.695 8.96 138.389 8.92C138.082 8.86667 137.715 8.78667 137.289 8.68C136.662 9.06667 136.189 9.49333 135.869 9.96C135.562 10.4267 135.409 10.9333 135.409 11.48C135.409 12.2133 135.649 12.7667 136.129 13.14C136.609 13.5 137.195 13.68 137.889 13.68C138.462 13.68 139.022 13.56 139.569 13.32C140.115 13.08 140.589 12.78 140.989 12.42C141.109 12.4867 141.195 12.5867 141.249 12.72C141.302 12.84 141.329 12.9733 141.329 13.12C141.329 13.4267 141.215 13.72 140.989 14C140.775 14.28 140.475 14.5267 140.089 14.74C139.715 14.9533 139.282 15.12 138.789 15.24C138.295 15.3733 137.775 15.44 137.229 15.44ZM131.329 7.2C130.915 7.2 130.562 7.10667 130.269 6.92C129.975 6.72 129.749 6.44667 129.589 6.1C129.442 5.74 129.369 5.32667 129.369 4.86C129.369 4.39333 129.455 3.92667 129.629 3.46C129.802 2.98 130.075 2.55333 130.449 2.18C130.822 1.80667 131.295 1.50667 131.869 1.28C132.442 1.05333 133.122 0.94 133.909 0.94C134.655 0.94 135.382 0.993333 136.089 1.1C136.795 1.20667 137.489 1.32 138.169 1.44C138.849 1.54667 139.509 1.6 140.149 1.6C140.669 1.6 141.135 1.56 141.549 1.48C141.975 1.4 142.375 1.18667 142.749 0.84C142.855 0.959999 142.942 1.11333 143.009 1.3C143.089 1.47333 143.122 1.64667 143.109 1.82C143.109 2.08667 143.035 2.35333 142.889 2.62C142.755 2.87333 142.529 3.08667 142.209 3.26C141.902 3.42 141.502 3.5 141.009 3.5C140.649 3.5 140.249 3.46 139.809 3.38C139.382 3.3 138.922 3.18667 138.429 3.04C137.935 2.88 137.402 2.7 136.829 2.5L136.789 2.42C136.389 2.27333 136.002 2.15333 135.629 2.06C135.255 1.96667 134.882 1.92 134.509 1.92C133.602 1.92 132.902 2.17333 132.409 2.68C131.915 3.18667 131.669 3.89333 131.669 4.8C131.669 5.17333 131.715 5.54 131.809 5.9C131.915 6.26 132.069 6.60667 132.269 6.94C132.149 7.03333 132.009 7.1 131.849 7.14C131.702 7.18 131.529 7.2 131.329 7.2ZM145.181 15.4C144.501 15.4 143.948 15.24 143.521 14.92C143.108 14.5867 142.801 14.14 142.601 13.58C142.415 13.0067 142.321 12.3533 142.321 11.62C142.321 10.6333 142.455 9.70667 142.721 8.84C142.988 7.96 143.368 7.18667 143.861 6.52C144.368 5.85333 144.955 5.33333 145.621 4.96C146.288 4.58667 147.021 4.4 147.821 4.4C148.475 4.4 149.161 4.54 149.881 4.82L151.901 4.56L150.301 12.92C150.288 13.04 150.268 13.18 150.241 13.34C150.215 13.5 150.201 13.64 150.201 13.76C150.201 13.96 150.248 14.12 150.341 14.24C150.448 14.36 150.608 14.4267 150.821 14.44C150.755 14.6667 150.641 14.8533 150.481 15C150.335 15.1333 150.161 15.2333 149.961 15.3C149.775 15.3667 149.561 15.4 149.321 15.4C148.961 15.4 148.655 15.3 148.401 15.1C148.148 14.9133 148.001 14.6333 147.961 14.26C147.615 14.5933 147.201 14.8667 146.721 15.08C146.255 15.2933 145.741 15.4 145.181 15.4ZM146.061 14.2C146.568 14.2 146.975 14.0333 147.281 13.7C147.601 13.3667 147.855 12.9533 148.041 12.46C148.228 11.9533 148.368 11.4667 148.461 11L149.341 6.22C149.075 6.00667 148.795 5.85333 148.501 5.76C148.221 5.65333 147.961 5.6 147.721 5.6C147.308 5.6 146.935 5.72 146.601 5.96C146.281 6.2 145.995 6.52667 145.741 6.94C145.501 7.35333 145.295 7.83333 145.121 8.38C144.961 8.92667 144.841 9.51333 144.761 10.14C144.681 10.7533 144.641 11.3733 144.641 12C144.641 12.6133 144.741 13.1333 144.941 13.56C145.141 13.9867 145.515 14.2 146.061 14.2ZM152.495 15.24L154.495 4.8L156.395 4.56L156.155 6.36C156.408 5.78667 156.788 5.32 157.295 4.96C157.801 4.58667 158.368 4.4 158.995 4.4C159.648 4.4 160.121 4.59333 160.415 4.98C160.721 5.36667 160.875 5.84 160.875 6.4C160.875 7.06667 160.695 7.64 160.335 8.12C159.975 8.6 159.501 8.84 158.915 8.84C158.755 8.84 158.588 8.81333 158.415 8.76C158.255 8.70667 158.128 8.61333 158.035 8.48C158.208 8.25333 158.348 7.98 158.455 7.66C158.561 7.32667 158.615 7.02667 158.615 6.76C158.615 6.50667 158.555 6.30667 158.435 6.16C158.328 6.01333 158.148 5.94 157.895 5.94C157.575 5.94 157.295 6.06 157.055 6.3C156.815 6.52667 156.615 6.82 156.455 7.18C156.295 7.54 156.161 7.92667 156.055 8.34C155.961 8.74 155.881 9.10667 155.815 9.44L154.835 15L152.495 15.24Z" fill="white"/>
</svg>
