<svg width="24" height="24" viewBox="0 0 24 24" fill="none" xmlns="http://www.w3.org/2000/svg">
<path d="M8.5 22.5C9.32843 22.5 10 21.8284 10 21C10 20.1716 9.32843 19.5 8.5 19.5C7.67157 19.5 7 20.1716 7 21C7 21.8284 7.67157 22.5 8.5 22.5Z" fill="#ffffff"/>
<path d="M19 22.5C19.8284 22.5 20.5 21.8284 20.5 21C20.5 20.1716 19.8284 19.5 19 19.5C18.1716 19.5 17.5 20.1716 17.5 21C17.5 21.8284 18.1716 22.5 19 22.5Z" fill="#ffffff"/>
<path d="M22 5.25H5.365L4.75 2.1C4.71494 1.92804 4.62068 1.77383 4.48364 1.6642C4.3466 1.55456 4.17546 1.49646 4 1.5H1V3H3.385L6.25 17.4C6.28506 17.572 6.37932 17.7262 6.51636 17.8358C6.6534 17.9454 6.82454 18.0035 7 18H20.5V16.5H7.615L7 13.5H20.5C20.6734 13.5042 20.8429 13.4483 20.9796 13.3416C21.1163 13.2349 21.2119 13.0842 21.25 12.915L22.75 6.165C22.7751 6.05372 22.7745 5.93817 22.7483 5.82715C22.722 5.71613 22.6708 5.61256 22.5985 5.52433C22.5261 5.4361 22.4347 5.36553 22.3309 5.31799C22.2272 5.27045 22.114 5.2472 22 5.25ZM19.9 12H6.715L5.665 6.75H21.0625L19.9 12Z" fill="#ffffff"/>
</svg>
