<svg width="24" height="24" viewBox="0 0 24 24" fill="none" xmlns="http://www.w3.org/2000/svg">
<path d="M12 3C13.78 3 15.5201 3.52784 17.0001 4.51677C18.4802 5.50571 19.6337 6.91131 20.3149 8.55585C20.9961 10.2004 21.1743 12.01 20.8271 13.7558C20.4798 15.5016 19.6226 17.1053 18.364 18.364C17.1053 19.6226 15.5016 20.4798 13.7558 20.8271C12.01 21.1743 10.2004 20.9961 8.55585 20.3149C6.91132 19.6337 5.50571 18.4802 4.51678 17.0001C3.52785 15.5201 3.00001 13.78 3.00001 12C3.00001 9.61305 3.94822 7.32387 5.63604 5.63604C7.32387 3.94821 9.61306 3 12 3ZM12 1.5C9.9233 1.5 7.89323 2.11581 6.16652 3.26957C4.4398 4.42332 3.09399 6.0632 2.29927 7.98182C1.50455 9.90045 1.29661 12.0116 1.70176 14.0484C2.1069 16.0852 3.10693 17.9562 4.57538 19.4246C6.04384 20.8931 7.91476 21.8931 9.95156 22.2982C11.9884 22.7034 14.0996 22.4955 16.0182 21.7007C17.9368 20.906 19.5767 19.5602 20.7304 17.8335C21.8842 16.1068 22.5 14.0767 22.5 12C22.5 9.21523 21.3938 6.54451 19.4246 4.57538C17.4555 2.60625 14.7848 1.5 12 1.5Z" fill="#878686"/>
<path d="M17.25 7.8075L16.1925 6.75L12.9675 9.975C12.5476 9.77448 12.0759 9.70905 11.6174 9.78773C11.1588 9.86641 10.7358 10.0853 10.4068 10.4143C10.0778 10.7433 9.85891 11.1663 9.78023 11.6249C9.70155 12.0834 9.76698 12.5551 9.9675 12.975L6.75 16.1925L7.8075 17.25L11.0325 14.025C11.4524 14.2255 11.9241 14.2909 12.3826 14.2123C12.8412 14.1336 13.2642 13.9147 13.5932 13.5857C13.9222 13.2567 14.1411 12.8337 14.2198 12.3751C14.2984 11.9166 14.233 11.4449 14.0325 11.025L17.25 7.8075ZM12.75 12C12.75 12.1483 12.706 12.2933 12.6236 12.4167C12.5412 12.54 12.4241 12.6361 12.287 12.6929C12.15 12.7497 11.9992 12.7645 11.8537 12.7356C11.7082 12.7067 11.5746 12.6352 11.4697 12.5303C11.3648 12.4254 11.2933 12.2918 11.2644 12.1463C11.2355 12.0008 11.2503 11.85 11.3071 11.713C11.3639 11.5759 11.46 11.4588 11.5833 11.3764C11.7067 11.294 11.8517 11.25 12 11.25C12.1989 11.25 12.3897 11.329 12.5303 11.4697C12.671 11.6103 12.75 11.8011 12.75 12Z" fill="#878686"/>
<path d="M12 6.75C12.6213 6.75 13.125 6.24632 13.125 5.625C13.125 5.00368 12.6213 4.5 12 4.5C11.3787 4.5 10.875 5.00368 10.875 5.625C10.875 6.24632 11.3787 6.75 12 6.75Z" fill="#878686"/>
</svg>
