<svg width="24" height="24" viewBox="0 0 24 24" fill="none" xmlns="http://www.w3.org/2000/svg">
<path d="M12.4898 2.16031C12.3478 2.05642 12.1729 2 11.9928 2C11.8126 2 11.6377 2.05642 11.4957 2.16031L0 10.5645L0.99416 11.7433L2.4 10.7156V20C2.40087 20.3975 2.56972 20.7786 2.86959 21.0597C3.16946 21.3408 3.57592 21.4991 4 21.5H20C20.4241 21.4992 20.8306 21.341 21.1305 21.0598C21.4304 20.7787 21.5992 20.3976 21.6 20V10.7225L23.0058 11.75L24 10.5711L12.4898 2.16031ZM13.6 20H10.4V14H13.6V20ZM15.2 20V14C15.1995 13.6023 15.0308 13.221 14.7308 12.9398C14.4309 12.6586 14.0242 12.5004 13.6 12.5H10.4C9.97578 12.5004 9.56906 12.6585 9.2691 12.9397C8.96913 13.221 8.80042 13.6023 8.8 14V20H4V9.54608L12 3.70358L20 9.55396V20H15.2Z" fill="#0C8A55"/>
</svg>
